<?xml version="1.0" standalone="no"?>
<!DOCTYPE svg PUBLIC "-//W3C//DTD SVG 20010904//EN"
 "http://www.w3.org/TR/2001/REC-SVG-20010904/DTD/svg10.dtd">
<svg version="1.0" xmlns="http://www.w3.org/2000/svg"
 width="1223.000000pt" height="513.000000pt" viewBox="0 0 1223.000000 513.000000"
 preserveAspectRatio="xMidYMid meet">

<g transform="translate(0.000000,513.000000) scale(0.100000,-0.100000)"
fill="#000000" stroke="none">
<path d="M10 2570 l0 -2560 1335 0 c734 0 1335 4 1335 8 0 5 -20 59 -44 121
-30 75 -41 113 -33 116 7 2 154 27 327 55 173 28 323 54 334 57 10 3 17 1 15
-4 -2 -6 -83 -79 -179 -163 -96 -83 -184 -161 -195 -171 -19 -19 -18 -19 90
-19 61 0 105 4 98 8 -8 5 4 21 40 49 29 22 84 66 123 96 l71 56 -28 -102 c-16
-56 -29 -103 -29 -104 0 -2 676 -3 1503 -3 l1502 0 54 76 c71 100 170 265 275
460 47 88 86 154 86 147 0 -19 -76 -186 -132 -292 -65 -122 -137 -237 -199
-323 l-49 -68 2960 0 2960 0 0 2560 0 2560 -6110 0 -6110 0 0 -2560z m7590
2267 c0 -2 -10 -12 -22 -23 l-23 -19 19 23 c18 21 26 27 26 19z m-92 -108
c-53 -63 -97 -111 -82 -90 18 28 116 141 121 141 3 0 -15 -23 -39 -51z m-90 0
c-18 -23 -41 -51 -50 -63 -10 -11 -18 -17 -18 -13 0 8 91 117 98 117 2 0 -11
-18 -30 -41z m-4917 -143 c11 -76 18 -140 16 -143 -3 -2 -64 26 -135 64 l-130
69 111 77 c61 42 112 76 113 74 2 -2 13 -65 25 -141z m5029 61 c0 -2 -12 -14
-27 -28 l-28 -24 24 28 c23 25 31 32 31 24z m-140 -61 c0 -2 -8 -10 -17 -17
-16 -13 -17 -12 -4 4 13 16 21 21 21 13z m59 -33 c-18 -23 -130 -156 -137
-163 -3 -3 -1 2 3 10 12 21 137 170 143 170 2 0 -2 -8 -9 -17z m558 -49 c-3
-3 -12 -4 -19 -1 -8 3 -5 6 6 6 11 1 17 -2 13 -5z m-104 -38 c-15 -13 -30 -22
-33 -19 -5 5 41 42 53 43 4 0 -5 -11 -20 -24z m161 -67 c23 -27 37 -86 19 -77
-5 2 -41 21 -82 42 -66 36 -71 41 -55 53 10 7 35 13 55 13 29 0 43 -7 63 -31z
m-6034 -19 c11 -11 20 -29 20 -40 0 -27 -43 -70 -70 -70 -28 0 -60 35 -60 67
0 57 69 84 110 43z m5807 -67 c-2 -16 -4 -5 -4 22 0 28 2 40 4 28 2 -13 2 -35
0 -50z m221 -11 c21 -14 22 -16 6 -33 -39 -43 -122 -31 -149 22 -15 29 -20 71
-9 82 6 6 105 -40 152 -71z m-204 -38 c3 -8 2 -12 -4 -9 -6 3 -10 10 -10 16 0
14 7 11 14 -7z m679 2 c152 -55 207 -242 104 -360 l-32 -38 -68 79 c-64 72
-162 166 -232 221 l-30 24 35 29 c62 52 152 70 223 45z m-613 -73 c0 -8 -38
17 -51 33 -9 11 -2 9 19 -6 17 -13 32 -25 32 -27z m182 17 c-18 -17 -38 -30
-45 -30 -6 0 2 9 19 19 18 11 35 24 38 30 4 6 10 11 14 11 4 0 -8 -14 -26 -30z
m-79 -37 c-13 -2 -35 -2 -50 0 -16 2 -5 4 22 4 28 0 40 -2 28 -4z m316 -67
c73 -61 148 -137 206 -209 l37 -47 -35 -15 c-45 -19 -127 -19 -170 -2 -88 37
-141 117 -141 212 0 56 15 115 30 115 4 0 37 -24 73 -54z m-6044 -236 c0 -33
-40 -41 -50 -11 -9 28 2 43 28 39 16 -2 22 -10 22 -28z m6089 -323 c32 -65 65
-149 77 -201 l22 -88 159 6 c157 7 158 7 158 -15 0 -22 -61 -351 -66 -358 -2
-2 -55 29 -119 68 -63 39 -118 71 -123 71 -4 0 -17 -42 -29 -93 -64 -262 -267
-528 -614 -803 -69 -54 -188 -148 -264 -208 -76 -60 -182 -152 -237 -204 -54
-52 -98 -88 -98 -81 0 26 186 192 455 407 404 322 570 500 675 725 41 86 80
214 80 257 -1 22 -23 38 -173 127 l-172 103 173 0 173 0 -7 38 c-12 73 -66
218 -111 302 -25 46 -38 79 -30 71 9 -7 41 -63 71 -124z m-6034 -255 c0 -4
-42 -18 -92 -31 -493 -127 -810 -374 -893 -696 -34 -133 -11 -336 54 -480 63
-138 185 -291 316 -395 l64 -51 32 16 c65 34 149 -16 149 -89 0 -32 3 -35 90
-75 50 -22 97 -41 103 -41 7 0 17 -4 22 -9 6 -4 32 -16 59 -25 46 -15 51 -15
70 2 18 15 19 15 8 0 -11 -14 -10 -18 5 -26 21 -11 202 -63 423 -122 209 -55
380 -109 380 -119 0 -5 -27 0 -61 10 -33 10 -190 53 -347 94 -158 41 -316 84
-352 95 -36 11 -70 20 -76 20 -5 0 -57 -56 -114 -125 -57 -68 -106 -122 -108
-120 -5 5 17 33 130 163 l77 90 -60 22 c-51 18 -63 19 -77 8 -15 -11 -16 -11
-4 4 11 14 8 18 -25 28 -21 7 -63 25 -94 41 l-56 28 -27 -27 c-21 -21 -36 -27
-72 -27 -39 0 -50 5 -76 34 -28 31 -30 39 -25 85 5 51 5 52 -35 80 -69 50
-164 144 -221 219 -242 317 -262 688 -53 964 150 198 396 338 761 433 126 33
125 33 125 22z m5640 -227 c17 -20 5 -45 -20 -45 -23 0 -35 22 -26 45 7 19 30
19 46 0z m-6682 -61 c27 -18 30 -69 5 -96 -34 -38 -113 -8 -113 42 0 26 43 70
67 70 10 0 29 -7 41 -16z m6777 -336 c55 -22 103 -42 107 -44 7 -4 -37 -48
-165 -164 -26 -23 -49 -41 -51 -39 -4 4 -36 257 -36 284 0 20 6 18 145 -37z
m-5860 -387 c-26 -33 -56 -68 -68 -78 l-21 -18 20 25 c33 45 107 130 111 130
2 0 -17 -27 -42 -59z m-102 -16 c-15 -19 -29 -32 -32 -29 -4 4 48 64 56 64 2
0 -9 -16 -24 -35z m517 -107 c40 -43 11 -108 -49 -108 -55 0 -81 70 -41 110
26 26 64 25 90 -2z m-490 -73 c-34 -41 -64 -75 -67 -75 -3 0 1 8 9 18 8 9 36
43 62 75 27 31 50 57 53 57 2 0 -23 -34 -57 -75z m6780 -25 c41 -41 15 -110
-42 -110 -33 0 -68 31 -68 62 0 29 38 68 67 68 13 0 32 -9 43 -20z m-880 -812
c-84 -101 -162 -192 -173 -203 l-21 -20 15 22 c22 35 324 391 327 387 2 -1
-65 -85 -148 -186z m-5980 57 c-34 -41 -70 -80 -79 -87 -9 -7 -8 -3 5 12 78
95 127 150 131 150 2 0 -23 -34 -57 -75z m5833 -94 c-60 -71 -110 -128 -112
-126 -4 4 207 255 215 255 2 0 -44 -58 -103 -129z m231 7 c-8 -14 -296 -358
-328 -393 -60 -65 27 45 169 214 150 179 177 209 159 179z m-5884 -102 c0 -2
-8 -10 -17 -17 -16 -13 -17 -12 -4 4 13 16 21 21 21 13z m-82 -98 c-24 -29
-75 -90 -113 -135 -63 -76 -88 -102 -69 -70 15 23 215 257 221 257 3 0 -15
-24 -39 -52z m447 -203 c44 -43 21 -105 -39 -105 -62 0 -93 74 -46 112 30 25
56 23 85 -7z m5640 -425 c0 -18 -6 -26 -23 -28 -27 -4 -40 22 -22 44 19 22 45
13 45 -16z m-421 -216 c29 -28 31 -63 5 -90 -26 -28 -55 -31 -87 -8 -27 18
-30 69 -5 96 20 22 66 24 87 2z m-4129 -44 c38 -42 7 -110 -50 -110 -26 0 -65
43 -65 71 0 51 80 78 115 39z"/>
</g>
</svg>
